<svg width="45" height="44" viewBox="0 0 45 44" fill="none" xmlns="http://www.w3.org/2000/svg">
<mask id="mask0_32001_5015" style="mask-type:alpha" maskUnits="userSpaceOnUse" x="7" y="1" width="30" height="42">
<path d="M7.47607 4.58349C7.47607 3.06471 8.70729 1.8335 10.2261 1.8335H25.8094L36.8094 12.8335V39.4168C36.8094 40.9356 35.5782 42.1668 34.0594 42.1668H10.2261C8.70729 42.1668 7.47607 40.9356 7.47607 39.4168V4.58349Z" fill="black"/>
</mask>
<g mask="url(#mask0_32001_5015)">
<path d="M7.47607 4.58349C7.47607 3.06471 8.70729 1.8335 10.2261 1.8335H34.0594C35.5782 1.8335 36.8094 3.06471 36.8094 4.5835V39.4168C36.8094 40.9356 35.5782 42.1668 34.0594 42.1668H10.2261C8.70729 42.1668 7.47607 40.9356 7.47607 39.4168V4.58349Z" fill="#4E8DF5"/>
<path fill-rule="evenodd" clip-rule="evenodd" d="M10.2261 42.1665C8.70729 42.1665 7.47607 40.9353 7.47607 39.4165V38.9883C7.49228 40.4932 8.71722 41.7081 10.2259 41.7081H34.0592C35.578 41.7081 36.8092 40.4769 36.8092 38.9581V4.55299C36.8094 4.56304 36.8094 4.5731 36.8094 4.58317V39.4165C36.8094 40.9353 35.5782 42.1665 34.0594 42.1665H10.2261Z" fill="#417EE9"/>
<path fill-rule="evenodd" clip-rule="evenodd" d="M10.2261 1.8335C8.70729 1.8335 7.47607 3.06471 7.47607 4.58349V5.01167C7.49228 3.50682 8.71722 2.29191 10.2259 2.29191H34.0592C35.578 2.29191 36.8092 3.52313 36.8092 5.04191V39.447C36.8094 39.437 36.8094 39.4269 36.8094 39.4168V4.5835C36.8094 3.06471 35.5782 1.8335 34.0594 1.8335H10.2261Z" fill="#639AF6"/>
<path d="M36.8101 22.229L26.9837 12.4026C26.5506 11.9695 26.8573 11.229 27.4698 11.229H36.8101V22.229Z" fill="url(#paint0_linear_32001_5015)"/>
<path d="M25.8101 1.8335L36.8101 12.8335H28.5601C27.0413 12.8335 25.8101 11.6023 25.8101 10.0835V1.8335Z" fill="#A6C5FA"/>
<path fill-rule="evenodd" clip-rule="evenodd" d="M29.4767 22H14.8101V23.8333H29.4767V22ZM29.4769 25.6667H14.8102V27.5H29.4769V25.6667ZM14.8102 29.3333H29.4769V31.1667H14.8102V29.3333ZM25.8102 33H14.8102V34.8333H25.8102V33Z" fill="white"/>
</g>
<defs>
<linearGradient id="paint0_linear_32001_5015" x1="31.3101" y1="22.229" x2="31.3101" y2="10.9998" gradientUnits="userSpaceOnUse">
<stop stop-color="#4E8DF5"/>
<stop offset="1" stop-color="#3D6ACD"/>
</linearGradient>
</defs>
</svg>
