<svg width="18" height="18" viewBox="0 0 18 18" fill="none" xmlns="http://www.w3.org/2000/svg">
<path d="M16.347 7.90945L12.972 11.2845C12.8134 11.443 12.5985 11.532 12.3743 11.532C12.1501 11.532 11.9351 11.443 11.7766 11.2845C11.6181 11.1259 11.5291 10.911 11.5291 10.6868C11.5291 10.4626 11.6181 10.2477 11.7766 10.0891L13.7109 8.15625H11.6016C10.2918 8.15582 9.01913 8.59074 7.98357 9.39261C6.94802 10.1945 6.20837 11.3178 5.88094 12.5859C5.85324 12.6932 5.80467 12.794 5.73802 12.8825C5.67137 12.9711 5.58793 13.0456 5.49248 13.1019C5.39702 13.1582 5.29142 13.1951 5.18169 13.2106C5.07196 13.226 4.96026 13.2197 4.85297 13.192C4.74567 13.1643 4.64489 13.1158 4.55636 13.0491C4.46783 12.9825 4.3933 12.899 4.33702 12.8036C4.28074 12.7081 4.24381 12.6025 4.22835 12.4928C4.21288 12.3831 4.21917 12.2714 4.24688 12.1641C4.66718 10.5333 5.61793 9.08867 6.94942 8.0576C8.28091 7.02652 9.91752 6.46757 11.6016 6.46875H13.7109L11.778 4.53375C11.6195 4.37524 11.5305 4.16026 11.5305 3.93609C11.5305 3.71193 11.6195 3.49695 11.778 3.33844C11.9366 3.17993 12.1515 3.09088 12.3757 3.09088C12.5999 3.09088 12.8149 3.17993 12.9734 3.33844L16.3484 6.71344C16.427 6.79193 16.4894 6.88519 16.532 6.98787C16.5745 7.09054 16.5963 7.20061 16.5962 7.31174C16.596 7.42287 16.574 7.53288 16.5312 7.63546C16.4884 7.73803 16.4258 7.83115 16.347 7.90945ZM13.5 14.3438H3.09375V6.1875C3.09375 5.96372 3.00486 5.74911 2.84662 5.59088C2.68839 5.43265 2.47378 5.34375 2.25 5.34375C2.02622 5.34375 1.81161 5.43265 1.65338 5.59088C1.49514 5.74911 1.40625 5.96372 1.40625 6.1875V15.1875C1.40625 15.4113 1.49514 15.6259 1.65338 15.7841C1.81161 15.9424 2.02622 16.0313 2.25 16.0313H13.5C13.7238 16.0313 13.9384 15.9424 14.0966 15.7841C14.2549 15.6259 14.3438 15.4113 14.3438 15.1875C14.3438 14.9637 14.2549 14.7491 14.0966 14.5909C13.9384 14.4326 13.7238 14.3438 13.5 14.3438Z" fill="white"/>
</svg>
